<svg width="35" height="35" viewBox="0 0 50 50" fill="none" xmlns="http://www.w3.org/2000/svg">
<g clip-path="url(#clip0_836:6)">
<path d="M50 25C50.0045 28.3842 49.3194 31.7339 47.9867 34.8447L47.9038 35.0355C45.6495 40.1641 41.7404 44.3887 36.8018 47.0336C31.8632 49.6785 26.1803 50.5909 20.662 49.625C20.5118 49.5984 20.3619 49.5708 20.2123 49.5422C18.6659 49.2424 17.1517 48.7958 15.6901 48.2086C15.4527 48.1132 15.217 48.0143 14.983 47.912C14.8232 47.8424 14.6635 47.7707 14.5052 47.6967C10.1752 45.6899 6.50925 42.4871 3.9393 38.4658C1.36934 34.4445 0.00254191 29.7724 0 25C0 11.193 11.193 0 25 0C38.807 0 50 11.193 50 25Z" fill="#FFF6BE"/>
<path opacity="0.2" d="M20.662 49.625C20.5118 49.5984 20.3619 49.5708 20.2123 49.5422C20.1146 46.7086 19.7796 40.8928 18.6368 34.8018C18.0118 31.4682 17.1442 28.051 15.9408 24.9963C15.5285 23.9393 15.0576 22.9062 14.5303 21.9016C13.3143 19.605 11.8395 17.6716 10.051 16.3617L10.3143 16.0022C11.8018 17.0925 13.1385 18.623 14.3247 20.5939C14.6805 21.1842 15.0222 21.8139 15.3498 22.483C15.7012 23.199 16.0362 23.9591 16.355 24.7633C16.5584 25.2752 16.7549 25.8047 16.9445 26.3521C17.77 28.7286 18.4716 31.4401 19.0495 34.4867C19.1775 35.1598 19.2993 35.8494 19.4149 36.5555C20.3106 42.0266 20.5806 47.0851 20.662 49.625Z" fill="black"/>
<path opacity="0.2" d="M14.983 47.912C14.8232 47.8425 14.6635 47.7707 14.5052 47.6968C14.3506 46.0178 14.0666 43.9349 13.5474 41.9578C13.32 41.0699 13.028 40.1997 12.6738 39.3543C12.0814 37.9675 11.3144 36.7885 10.3225 36.0614L10.5858 35.7027C11.6243 36.463 12.4253 37.6649 13.0444 39.071C13.7419 40.6553 14.2071 42.4993 14.517 44.2611C14.7471 45.5695 14.892 46.8336 14.983 47.912Z" fill="black"/>
<path opacity="0.2" d="M7.56362 16.3514C8.79272 16.3514 9.7891 15.355 9.7891 14.1259C9.7891 12.8968 8.79272 11.9004 7.56362 11.9004C6.33452 11.9004 5.33813 12.8968 5.33813 14.1259C5.33813 15.355 6.33452 16.3514 7.56362 16.3514Z" fill="black"/>
<path opacity="0.2" d="M8.28042 35.5088C9.50952 35.5088 10.5059 34.5125 10.5059 33.2834C10.5059 32.0542 9.50952 31.0579 8.28042 31.0579C7.05132 31.0579 6.05493 32.0542 6.05493 33.2834C6.05493 34.5125 7.05132 35.5088 8.28042 35.5088Z" fill="black"/>
<path opacity="0.2" d="M16.399 17.864C15.9271 20.5265 16.9689 22.9374 16.9689 22.9374C16.9689 22.9374 18.7758 21.0315 19.2478 18.369C19.7197 15.7064 18.6779 13.2956 18.6779 13.2956C18.6779 13.2956 16.871 15.2015 16.399 17.864Z" fill="black"/>
<path opacity="0.2" d="M9.0028 24.1843C11.5424 25.1129 14.0943 24.5169 14.0943 24.5169C14.0943 24.5169 12.5287 22.4154 9.98917 21.4868C7.44961 20.5582 4.89771 21.1541 4.89771 21.1541C4.89771 21.1541 6.46324 23.2556 9.0028 24.1843Z" fill="black"/>
<path opacity="0.2" d="M8.57209 41.1489C10.3521 41.7998 12.1433 41.3752 12.1433 41.3752C12.1433 41.3752 11.0485 39.8953 9.2685 39.2444C7.48847 38.5935 5.69727 39.0181 5.69727 39.0181C5.69727 39.0181 6.79206 40.498 8.57209 41.1489Z" fill="black"/>
<path d="M24.9487 30.5362C30.3314 30.5362 34.695 26.1726 34.695 20.7899C34.695 15.4071 30.3314 11.0435 24.9487 11.0435C19.566 11.0435 15.2024 15.4071 15.2024 20.7899C15.2024 26.1726 19.566 30.5362 24.9487 30.5362Z" fill="#D0CDE1"/>
<path d="M21.1416 28.2519C21.1416 28.2519 22.3599 34.0387 22.3599 34.6479C22.3599 35.257 28.1468 37.9982 28.1468 37.9982L33.3245 37.0845L35.1519 31.6022C35.1519 31.6022 32.1062 27.0336 32.1062 25.2061L21.1416 28.2519Z" fill="#D0CDE1"/>
<path d="M47.9868 34.8447L47.904 35.0355C45.6496 40.1641 41.7405 44.3887 36.8019 47.0336C31.8633 49.6785 26.1804 50.5909 20.6621 49.625C20.5119 49.5984 20.362 49.5708 20.2124 49.5422C18.666 49.2424 17.1518 48.7958 15.6902 48.2086C15.4528 48.1132 15.2171 48.0143 14.9831 47.912C14.8233 47.8425 14.6636 47.7707 14.5053 47.6967C13.0706 47.0321 11.7023 46.2326 10.4188 45.3092L9.26343 41.9578L9.91284 41.4623L11.2486 40.4423L12.6739 39.3543L13.0445 39.071L18.6369 34.8018L19.0497 34.4867L21.9565 32.2678L21.9572 32.267C21.9572 32.267 25.1007 37.3891 29.6695 35.8661C34.2383 34.3432 34.1384 29.9763 34.1384 29.9763L47.9868 34.8447Z" fill="#2F2E41"/>
<path d="M16.4968 12.9376C16.4968 12.9376 19.5912 6.233 25.5222 7.78021C31.4531 9.32741 34.8054 11.6482 35.0633 13.969C35.3212 16.2899 34.9344 19.7711 34.9344 19.7711C34.9344 19.7711 34.2897 15.0005 30.1638 16.032C26.0379 17.0635 19.5912 16.2899 19.5912 16.2899L18.5597 25.5731C18.5597 25.5731 17.3993 23.897 16.11 24.9284C14.8206 25.9599 12.3709 15.0005 16.4968 12.9376Z" fill="#2F2E41"/>
<path d="M15.6901 48.2086C15.4526 48.1131 15.2169 48.0143 14.983 47.912C14.8232 47.8424 14.6634 47.7707 14.5052 47.6967C12.1323 46.5964 9.94634 45.1314 8.02661 43.355C8.70635 42.429 9.2633 41.9578 9.2633 41.9578H13.8321L14.517 44.2611L15.6901 48.2086Z" fill="#2F2E41"/>
<path d="M43.9844 34.3432L47.9038 35.0355C46.8549 37.4249 45.4384 39.6354 43.7056 41.5865L43.9844 34.3432Z" fill="#2F2E41"/>
</g>
<defs>
<clipPath id="clip0_836:6">
<rect width="50" height="50" fill="white"/>
</clipPath>
</defs>
</svg>
