<svg width="23" height="26" viewBox="0 0 23 26" fill="none" xmlns="http://www.w3.org/2000/svg">
<path d="M0.821429 6.70312H22.1786C22.6323 6.70312 23 6.33938 23 5.89062V3.85938C23 3.41062 22.6323 3.04688 22.1786 3.04688H0.821429C0.367743 3.04688 0 3.41062 0 3.85938V5.89062C0 6.33938 0.367743 6.70312 0.821429 6.70312ZM0.821429 14.8281H22.1786C22.6323 14.8281 23 14.4644 23 14.0156V11.9844C23 11.5356 22.6323 11.1719 22.1786 11.1719H0.821429C0.367743 11.1719 0 11.5356 0 11.9844V14.0156C0 14.4644 0.367743 14.8281 0.821429 14.8281ZM0.821429 22.9531H22.1786C22.6323 22.9531 23 22.5894 23 22.1406V20.1094C23 19.6606 22.6323 19.2969 22.1786 19.2969H0.821429C0.367743 19.2969 0 19.6606 0 20.1094V22.1406C0 22.5894 0.367743 22.9531 0.821429 22.9531Z" fill="#808080"/>
</svg>