<svg viewBox="0 0 379 301" fill="none" xmlns="http://www.w3.org/2000/svg">
<g clip-path="url(#clip0_815:11)">
<path opacity="0.1" d="M222.27 50.8675C198.289 50.0346 175.446 42.302 153.636 33.8401C131.826 25.3782 110.224 16.0021 86.8168 11.5194C71.7619 8.63585 54.543 8.22868 42.4154 16.2908C30.7397 24.0642 26.9677 37.4455 24.9408 49.8755C23.4142 59.2257 22.5175 69.0646 26.7009 77.8189C29.6022 83.897 34.7564 89.0052 38.3172 94.8463C50.7191 115.102 41.9559 140.08 28.5165 159.858C22.2174 169.138 14.8993 177.996 10.0378 187.864C5.17639 197.733 2.92353 209.056 7.17729 219.132C11.3977 229.126 21.4504 236.618 32.3368 241.893C54.4541 252.609 80.5065 255.674 105.929 257.41C162.188 261.256 218.743 259.59 275.15 257.924C296.026 257.306 316.991 256.681 337.526 253.457C348.931 251.665 360.703 248.826 368.984 241.963C379.493 233.253 382.098 218.502 375.057 207.583C363.241 189.263 330.593 184.714 322.323 165.051C317.78 154.231 322.449 142.179 329.052 132.14C343.221 110.611 366.969 91.7222 368.221 67.1139C369.081 50.2086 357.661 33.2849 340.008 25.2857C321.507 16.8719 295.844 17.938 282.201 31.8153C268.143 46.1146 243.443 51.6004 222.27 50.8675Z" fill="#FFF6BE"/>
<path d="M161.35 255.596L34.5229 254.978L21.921 225.45L66.4817 222.219L58.7153 189.844L146.851 178.432L62.454 149.123L69.9092 147.354L205.618 169.471L198.145 219.994L187.462 247.76L161.35 255.596Z" fill="#FFF6BE"/>
<path d="M36.4682 242.611C36.4682 242.611 44.2495 241.367 48.9183 246.86C48.9183 246.86 45.4945 249.555 38.1282 245.824L36.4682 242.611Z" fill="#FFF6BE"/>
<path d="M35.6531 242.489C35.6531 242.489 30.6879 248.593 33.1334 255.389C33.1334 255.389 37.1797 253.771 37.6206 245.531L35.6531 242.489Z" fill="#FFF6BE"/>
<path d="M31.1918 232.454C31.1918 232.454 34.3043 226.749 46.7544 234.734C46.7544 234.734 45.0944 238.569 39.5956 238.258C34.0968 237.947 32.6443 235.459 31.1918 232.454Z" fill="#FFF6BE"/>
<path d="M30.3877 232.043C30.3877 232.043 23.9293 231.302 23.3031 246.072C23.3031 246.072 27.3975 246.92 30.3062 242.248C33.2149 237.577 32.0218 234.956 30.3877 232.043Z" fill="#FFF6BE"/>
<path d="M26.6268 220.261C26.6268 220.261 30.2581 210.207 43.4344 217.358C43.4344 217.358 40.4256 226.583 27.9756 223.681L26.6268 220.261Z" fill="#FFF6BE"/>
<path d="M22.5805 205.232C22.5805 205.232 29.4281 195.075 41.5668 204.492C41.5668 204.492 37.3131 214.027 23.618 208.845L22.5805 205.232Z" fill="#FFF6BE"/>
<path d="M21.128 190.929C21.128 190.929 29.1168 181.597 41.137 190.929C41.137 190.929 33.5632 199.117 21.128 193.313V190.929Z" fill="#FFF6BE"/>
<path d="M19.883 177.037C19.883 177.037 27.9756 167.294 39.4918 176.519C39.4918 176.519 30.3618 185.121 19.883 179.317V177.037Z" fill="#FFF6BE"/>
<path d="M20.6093 164.703C20.6093 164.703 29.1316 152.162 39.9068 160.661C39.9068 160.661 30.7768 171.44 20.6093 167.087V164.703Z" fill="#FFF6BE"/>
<path d="M22.5805 150.296C22.5805 150.296 31.6068 137.859 42.0856 147.394C42.0856 147.394 31.3993 158.173 22.5805 152.577V150.296Z" fill="#FFF6BE"/>
<path d="M25.5893 137.419C25.5893 137.419 36.2756 125.729 45.5983 130.385C45.5983 130.385 34.4636 142.801 25.1224 140.52L25.5893 137.419Z" fill="#FFF6BE"/>
<path d="M29.3243 125.211C29.3243 125.211 41.6558 110.893 48.8294 115.675C48.8294 115.675 39.7438 126.78 28.4498 127.891L29.3243 125.211Z" fill="#FFF6BE"/>
<path d="M34.7156 111.052C34.7156 111.052 45.5094 99.3623 53.3944 102.264C53.3944 102.264 44.1606 114.391 33.2668 114.702L34.7156 111.052Z" fill="#FFF6BE"/>
<path d="M39.5956 97.8076C39.5956 97.8076 51.5269 86.614 56.7144 88.5832C56.7144 88.5832 48.1031 101.021 39.0768 100.295L39.5956 97.8076Z" fill="#FFF6BE"/>
<path d="M44.3681 85.5775C44.3681 85.5775 54.6394 72.2036 60.2456 73.24C60.2456 73.24 54.0169 85.1629 44.3681 86.936V85.5775Z" fill="#FFF6BE"/>
<path d="M49.5482 69.0868C49.5482 69.0868 58.6264 58.8371 63.5323 58.8593C63.5323 58.8593 56.3661 72.5552 49.174 72.4294L49.5482 69.0868Z" fill="#FFF6BE"/>
<path d="M52.6162 58.1079L61.3868 36.757C61.3868 36.757 61.8241 56.0572 51.5009 62.0686L52.6162 58.1079Z" fill="#FFF6BE"/>
<path d="M56.1771 34.5619C56.1771 34.5619 57.6296 16.7313 56.6959 15.2802C56.6959 15.2802 62.9653 30.1052 56.1178 42.4389L56.1771 34.5619Z" fill="#FFF6BE"/>
<path d="M26.2859 220.024C26.2859 220.024 17.1929 214.393 11.3051 228.167C11.3051 228.167 19.3976 233.535 27.3567 223.536L26.2859 220.024Z" fill="#FFF6BE"/>
<path d="M22.2878 204.658C22.2878 204.658 11.1346 199.576 5.72479 213.957C5.72479 213.957 14.3398 219.879 23.3031 208.293L22.2878 204.658Z" fill="#FFF6BE"/>
<path d="M20.6093 191.784C20.6093 191.784 12.6205 182.452 0.600281 191.784C0.600281 191.784 8.17406 199.972 20.6093 194.168V191.784Z" fill="#FFF6BE"/>
<path d="M19.6088 177.037C19.6088 177.037 11.5163 167.294 0 176.519C0 176.519 9.13003 185.121 19.6088 179.317V177.037Z" fill="#FFF6BE"/>
<path d="M20.6093 165.058C20.6093 165.058 14.9326 151.011 2.59375 157.052C2.59375 157.052 9.26341 169.508 20.1053 167.39L20.6093 165.058Z" fill="#FFF6BE"/>
<path d="M23.2957 150.226C23.2957 150.226 17.6524 135.934 5.13934 142.56C5.13934 142.56 12.802 155.66 22.7398 152.432L23.2957 150.226Z" fill="#FFF6BE"/>
<path d="M26.7935 137.489C26.7935 137.489 24.5703 121.82 14.1953 120.417C14.1953 120.417 16.3963 136.941 25.3966 140.313L26.7935 137.489Z" fill="#FFF6BE"/>
<path d="M29.5874 125.24C29.5874 125.24 28.7203 106.362 20.1424 105.703C20.1424 105.703 20.4314 120.032 28.6203 127.913L29.5874 125.24Z" fill="#FFF6BE"/>
<path d="M35.6049 110.523C35.6049 110.523 33.0482 94.8241 24.8593 92.9067C24.8593 92.9067 25.8746 108.109 34.7934 114.376L35.6049 110.523Z" fill="#FFF6BE"/>
<path d="M40.5664 97.9371C40.5664 97.9371 40.4812 81.5834 35.4789 79.1811C35.4789 79.1811 32.3775 93.9875 39.1176 100.025L40.5664 97.9371Z" fill="#FFF6BE"/>
<path d="M44.7497 85.3924C44.7497 85.3924 44.0494 68.5538 38.8693 66.1811C38.8693 66.1811 37.0982 79.5068 43.9753 86.4955L44.7497 85.3924Z" fill="#FFF6BE"/>
<path d="M50.2707 70.4305C50.2707 70.4305 50.2411 56.7346 46.5431 53.5216C46.5431 53.5216 42.8674 68.5242 48.3402 73.1845L50.2707 70.4305Z" fill="#FFF6BE"/>
<path d="M52.1827 57.4342L48.5848 34.6396C48.5848 34.6396 43.6974 53.318 52.3532 61.5503L52.1827 57.4342Z" fill="#FFF6BE"/>
<path d="M52.883 34.7766C52.883 34.7766 43.6492 19.4519 43.8382 17.7492C43.8382 17.7492 44.8201 33.8105 56.4365 41.8097L52.883 34.7766Z" fill="#FFF6BE"/>
<path d="M53.965 30.2496C53.965 30.2496 45.25 8.4841 41.3075 6.72214C41.3075 6.72214 53.7575 13.0445 54.6913 29.6277L53.965 30.2496Z" fill="#FFF6BE"/>
<path d="M49.1295 72.5589L48.5329 72.3776C55.8881 48.4171 57.7222 33.1405 53.7019 29.3094L54.128 28.8578C58.3929 32.8999 56.6625 48.0099 49.1295 72.5589Z" fill="#444053"/>
<path d="M28.876 128.661L27.9941 128.346C28.7759 126.151 29.617 123.922 30.4989 121.727C38.1764 102.612 44.7127 84.8298 48.9035 71.1782L49.6705 70.8081C45.4723 84.4855 39.0509 102.949 31.366 122.09C30.4878 124.245 29.6504 126.462 28.876 128.661Z" fill="#444053"/>
<path d="M47.4324 260.541C47.3139 260.412 35.3937 247.001 27.0826 224.106C22.2127 210.703 19.5025 196.612 19.053 182.36C18.4824 164.544 22.2248 144.651 28.6351 126.58L29.3317 127.395C14.9401 167.953 20.6574 202.707 28.2423 223.636C36.4645 246.324 48.2513 259.586 48.3662 259.72L47.4324 260.541Z" fill="#444053"/>
<path d="M233.709 232.069C233.709 232.069 225.309 242.311 231.978 257.795L164.911 286.852L158.475 288.2L155.511 275.244L157.493 258.894V249.959L233.709 232.069Z" fill="#D5D6DB"/>
<path d="M21.921 225.45L114.748 208.545L237.748 228.119L161.35 255.596L21.921 225.45Z" fill="#FFF6BE"/>
<path d="M21.921 225.45L114.748 208.545L237.748 228.119L161.35 255.596L21.921 225.45Z" fill="#FFF6BE"/>
<path d="M21.921 225.446C21.921 225.446 13.2393 241.878 23.2438 257.055L160.898 286.852C160.898 286.852 152.354 273.764 161.339 255.596L21.921 225.446Z" fill="#FFF6BE"/>
<path opacity="0.1" d="M21.921 225.446C21.921 225.446 13.2393 241.878 23.2438 257.055L160.898 286.852C160.898 286.852 152.354 273.764 161.339 255.596L21.921 225.446Z" fill="black"/>
<path opacity="0.1" d="M26.0228 231.143C26.0228 231.143 21.0613 243.166 26.0228 250.947V231.143Z" fill="black"/>
<path d="M160.898 286.852L237.748 254.093C237.748 254.093 242.046 255.019 239.267 258.165C236.488 261.311 162.38 289.999 162.38 289.999L23.2438 257.055L160.898 286.852Z" fill="#FFF6BE"/>
<path opacity="0.1" d="M160.898 286.852L237.748 254.093C237.748 254.093 242.046 255.019 239.267 258.165C236.488 261.311 162.38 289.999 162.38 289.999L23.2438 257.055L160.898 286.852Z" fill="black"/>
<path opacity="0.1" d="M154.599 258.905C154.599 258.905 147.188 267.789 154.599 281.115V258.905Z" fill="black"/>
<path opacity="0.1" d="M190.477 258.755L157.237 269.834L157.354 270.185L190.594 259.106L190.477 258.755Z" fill="black"/>
<path opacity="0.1" d="M197.135 257.653L157.226 272.813L157.358 273.159L197.267 257.999L197.135 257.653Z" fill="black"/>
<path opacity="0.1" d="M203.25 257.6L157.449 276.327L157.589 276.67L203.39 257.942L203.25 257.6Z" fill="black"/>
<path opacity="0.1" d="M209.899 255.996L157.983 279.424L158.136 279.761L210.051 256.333L209.899 255.996Z" fill="black"/>
<path opacity="0.1" d="M215.485 256.003L158.394 280.932L158.543 281.271L215.633 256.343L215.485 256.003Z" fill="black"/>
<path opacity="0.1" d="M227.703 253.931L159.255 283.464L159.402 283.804L227.85 254.27L227.703 253.931Z" fill="black"/>
<path opacity="0.3" d="M56.4068 227.257L121.621 213.561L161.35 221.149L107.911 238.361L56.4068 227.257Z" fill="white"/>
<path d="M237.748 228.119C237.748 228.119 241.119 229.478 239.141 231.576C237.162 233.675 161.339 255.596 161.339 255.596L237.748 228.119Z" fill="#FFF6BE"/>
<path d="M270.499 196.467C270.499 196.467 262.103 206.705 268.773 222.193L201.705 251.25L195.269 252.605L192.305 239.65L194.317 223.303V214.356L270.499 196.467Z" fill="#D5D6DB"/>
<path d="M58.7153 189.844L151.538 172.943L274.542 192.517L198.145 219.994L58.7153 189.844Z" fill="#3A3768"/>
<path d="M58.7005 189.844C58.7005 189.844 50.0151 206.276 60.0196 221.452L197.674 251.25C197.674 251.25 189.133 238.15 198.13 219.99L58.7005 189.844Z" fill="#3A3768"/>
<path opacity="0.1" d="M58.7005 189.844C58.7005 189.844 50.0151 206.276 60.0196 221.452L197.674 251.25C197.674 251.25 189.133 238.15 198.13 219.99L154.599 210.577L58.7005 189.844Z" fill="black"/>
<path opacity="0.1" d="M62.8134 195.541C62.8134 195.541 57.8556 207.56 62.8134 215.345V195.541Z" fill="black"/>
<path d="M197.689 251.25L274.542 218.491C274.542 218.491 278.836 219.417 276.057 222.563C273.278 225.709 199.171 254.397 199.171 254.397L60.0344 221.452L197.689 251.25Z" fill="#3A3768"/>
<path opacity="0.1" d="M197.689 251.25L274.542 218.491C274.542 218.491 278.836 219.417 276.057 222.563C273.278 225.709 199.171 254.397 199.171 254.397L60.0344 221.452L197.689 251.25Z" fill="black"/>
<path opacity="0.1" d="M191.39 223.303C191.39 223.303 183.979 232.187 191.39 245.513V223.303Z" fill="black"/>
<path opacity="0.1" d="M227.271 223.157L194.03 234.236L194.147 234.587L227.388 223.508L227.271 223.157Z" fill="black"/>
<path opacity="0.1" d="M233.933 222.053L194.024 237.213L194.156 237.559L234.065 222.399L233.933 222.053Z" fill="black"/>
<path opacity="0.1" d="M240.042 221.995L194.242 240.722L194.382 241.065L240.183 222.337L240.042 221.995Z" fill="black"/>
<path opacity="0.1" d="M246.696 220.392L194.78 243.819L194.933 244.157L246.848 220.729L246.696 220.392Z" fill="black"/>
<path opacity="0.1" d="M252.276 220.394L195.186 245.323L195.335 245.662L252.425 220.734L252.276 220.394Z" fill="black"/>
<path opacity="0.1" d="M264.498 218.322L196.05 247.855L196.197 248.195L264.645 218.661L264.498 218.322Z" fill="black"/>
<path opacity="0.45" d="M93.2011 191.654L158.416 177.959L198.145 185.547L144.706 202.759L93.2011 191.654Z" fill="white"/>
<path d="M274.542 192.517C274.542 192.517 277.91 193.875 275.935 195.971C273.96 198.066 198.145 219.99 198.145 219.99L274.542 192.517Z" fill="#3A3768"/>
<path d="M273.982 155.738C273.982 155.738 265.582 174.124 272.252 189.607L205.185 210.522L198.763 211.88L195.799 198.924L197.781 182.574V173.628L273.982 155.738Z" fill="#D5D6DB"/>
<path d="M62.2094 149.119L155.036 132.214L278.04 151.788L201.639 179.265L62.2094 149.119Z" fill="#FFF6BE"/>
<path d="M62.2095 149.116C62.2095 149.116 53.513 165.547 63.5175 180.724L201.172 210.522C201.172 210.522 192.627 197.422 201.624 179.265L62.2095 149.116Z" fill="#FFF6BE"/>
<path opacity="0.1" d="M62.2095 149.116C62.2095 149.116 53.513 165.547 63.5175 180.724L201.172 210.522C201.172 210.522 192.627 197.422 201.624 179.265L62.2095 149.116Z" fill="black"/>
<path opacity="0.1" d="M66.3113 154.812C66.3113 154.812 61.3498 166.835 66.3113 174.616V154.812Z" fill="black"/>
<path d="M201.187 210.522L278.036 185.906C278.036 185.906 282.334 186.831 279.555 189.978C276.776 193.124 202.669 213.668 202.669 213.668L63.5323 180.724L201.187 210.522Z" fill="#FFF6BE"/>
<path opacity="0.1" d="M201.187 210.522L278.036 185.906C278.036 185.906 282.334 186.831 279.555 189.978C276.776 193.124 202.669 213.668 202.669 213.668L63.5323 180.724L201.187 210.522Z" fill="black"/>
<path opacity="0.1" d="M194.888 182.574C194.888 182.574 187.477 191.458 194.888 204.784V182.574Z" fill="black"/>
<path opacity="0.1" d="M230.77 182.427L197.529 193.506L197.646 193.857L230.887 182.779L230.77 182.427Z" fill="black"/>
<path opacity="0.1" d="M237.43 181.325L197.521 196.486L197.652 196.832L237.561 181.671L237.43 181.325Z" fill="black"/>
<path opacity="0.1" d="M243.535 181.269L197.735 199.997L197.875 200.339L243.676 181.611L243.535 181.269Z" fill="black"/>
<path opacity="0.1" d="M250.194 179.662L198.279 203.09L198.431 203.427L250.346 180L250.194 179.662Z" fill="black"/>
<path opacity="0.1" d="M255.776 179.669L198.686 204.598L198.835 204.937L255.925 180.008L255.776 179.669Z" fill="black"/>
<path opacity="0.1" d="M267.997 177.598L199.549 207.132L199.696 207.472L268.143 177.938L267.997 177.598Z" fill="black"/>
<path opacity="0.3" d="M96.6953 150.926L161.91 137.23L201.639 144.818L148.2 162.031L96.6953 150.926Z" fill="white"/>
<path d="M278.036 151.788C278.036 151.788 281.408 153.147 279.429 155.245C277.451 157.344 201.639 179.265 201.639 179.265L278.036 151.788Z" fill="#FFF6BE"/>
<path d="M115.022 39.4221C115.022 39.4221 100.942 38.5744 102.587 48.4429C102.587 48.4429 102.257 50.1864 103.839 50.9785C103.839 50.9785 103.865 50.2382 105.284 50.4936C105.791 50.5805 106.306 50.6054 106.818 50.5677C107.509 50.5204 108.166 50.2502 108.69 49.7977C108.69 49.7977 112.651 48.1616 114.192 41.6912C114.192 41.6912 115.333 40.2809 115.304 39.9181L112.917 40.9324C112.917 40.9324 113.729 42.6462 113.092 44.0713C113.092 44.0713 113.014 40.9953 112.554 41.0656C112.462 41.0656 111.32 41.6616 111.32 41.6616C111.32 41.6616 112.717 44.6488 111.661 46.8179C111.661 46.8179 112.061 43.1385 110.883 41.8763L109.208 42.8535C109.208 42.8535 110.842 45.937 109.735 48.4541C109.735 48.4541 110.02 44.5933 108.856 43.0904L107.337 44.2749C107.337 44.2749 108.875 47.314 107.937 49.4017C107.937 49.4017 107.815 44.9079 107.011 44.5674C107.011 44.5674 105.681 45.7371 105.481 46.2183C105.481 46.2183 106.533 48.4392 105.877 49.5904C105.877 49.5904 105.481 46.5958 105.136 46.581C105.136 46.581 103.813 48.5651 103.676 49.9125C103.74 48.6563 104.132 47.4389 104.814 46.3811C104.051 46.5252 103.348 46.8894 102.791 47.4287C102.791 47.4287 102.994 46.0258 105.144 45.9036C105.144 45.9036 106.237 44.3971 106.529 44.3082C106.529 44.3082 104.391 44.1269 103.098 44.7006C103.098 44.7006 104.239 43.3791 106.918 43.9603L108.401 42.7388C108.401 42.7388 105.592 42.3686 104.399 42.7795C104.399 42.7795 105.773 41.6098 108.804 42.4611L110.439 41.4876C110.439 41.4876 108.041 40.9731 106.615 41.1582C106.615 41.1582 108.119 40.3475 110.917 41.2248L112.08 40.7029C112.08 40.7029 110.327 40.3586 109.812 40.3031C109.297 40.2476 109.271 40.1069 109.271 40.1069C110.384 39.9244 111.525 40.0525 112.569 40.4771C112.569 40.4771 115.07 39.5776 115.022 39.4221Z" fill="#FFF6BE"/>
<path opacity="0.1" d="M313.111 79.9843C313.111 79.9843 299.031 79.1367 300.676 89.0052C300.676 89.0052 300.346 90.7486 301.928 91.5408C301.928 91.5408 301.954 90.8004 303.373 91.0559C303.88 91.1407 304.395 91.1656 304.907 91.1299C305.592 91.0795 306.242 90.8094 306.76 90.36C306.76 90.36 310.725 88.7238 312.263 82.2534C312.263 82.2534 313.404 80.8431 313.374 80.4804L310.995 81.4946C310.995 81.4946 311.807 83.2084 311.169 84.6336C311.169 84.6336 311.092 81.5575 310.636 81.6279C310.543 81.6279 309.398 82.2238 309.398 82.2238C309.398 82.2238 310.795 85.211 309.743 87.3802C309.743 87.3802 310.143 83.7008 308.961 82.4385L307.286 83.4157C307.286 83.4157 308.92 86.4992 307.812 89.0163C307.812 89.0163 308.098 85.1555 306.934 83.6526L305.419 84.8371C305.419 84.8371 306.953 87.8762 306.015 89.9639C306.015 89.9639 305.893 85.4701 305.089 85.1296C305.089 85.1296 303.762 86.2993 303.559 86.7805C303.559 86.7805 304.611 89.0015 303.959 90.1527C303.959 90.1527 303.559 87.1581 303.218 87.1433C303.218 87.1433 301.895 89.1273 301.758 90.4747C301.822 89.218 302.216 88.0003 302.899 86.9434C302.136 87.0878 301.431 87.4519 300.872 87.9909C300.872 87.9909 301.08 86.588 303.225 86.4659C303.225 86.4659 304.318 84.9593 304.611 84.8668C304.611 84.8668 302.477 84.6891 301.18 85.2628C301.18 85.2628 302.321 83.9414 305 84.5225L306.482 83.301C306.482 83.301 303.67 82.9308 302.48 83.3417C302.48 83.3417 303.851 82.172 306.886 83.0234L308.516 82.0498C308.516 82.0498 306.119 81.5353 304.693 81.7204C304.693 81.7204 306.197 80.9097 308.994 81.787L310.162 81.2651C310.162 81.2651 308.405 80.9209 307.89 80.8653C307.375 80.8098 307.349 80.6691 307.349 80.6691C308.462 80.4843 309.604 80.6125 310.647 81.0393C310.647 81.0393 313.156 80.1398 313.111 79.9843Z" fill="#FFF6BE"/>
<path opacity="0.1" d="M138.736 100.388C138.736 100.388 132.6 87.68 124.789 93.9431C124.789 93.9431 123.103 94.5058 123.185 96.2715C123.185 96.2715 123.833 95.9346 124.297 97.2968C124.47 97.7783 124.698 98.238 124.978 98.6664C125.358 99.2471 125.915 99.6889 126.568 99.9249C126.568 99.9249 129.929 102.583 136.335 100.769C136.335 100.769 138.125 101.076 138.418 100.861L136.372 99.2809C136.372 99.2809 135.261 100.824 133.712 100.961C133.712 100.961 136.365 99.3956 136.08 99.0329C136.02 98.9588 134.968 98.2444 134.968 98.2444C134.968 98.2444 133.038 100.921 130.629 101.058C130.629 101.058 134.038 99.614 134.564 97.9668L132.897 96.9822C132.897 96.9822 130.996 99.9138 128.258 100.173C128.258 100.173 131.77 98.5405 132.515 96.7934L130.744 96.0531C130.744 96.0531 128.836 98.8737 126.553 99.0773C126.553 99.0773 130.422 96.7786 130.325 95.9087C130.325 95.9087 128.654 95.3238 128.135 95.3794C128.135 95.3794 126.72 97.3745 125.386 97.3745C125.386 97.3745 127.806 95.5644 127.657 95.272C127.657 95.272 125.279 95.0869 124.026 95.6422C125.155 95.0818 126.41 94.8266 127.668 94.9019C127.169 94.3073 126.507 93.8712 125.764 93.647C125.764 93.647 127.09 93.1436 128.243 94.9537C128.243 94.9537 130.095 95.1721 130.314 95.3831C130.314 95.3831 129.429 93.436 128.298 92.5884C128.298 92.5884 130.01 92.9326 130.792 95.5496L132.589 96.2604C132.589 96.2604 131.555 93.6248 130.603 92.7919C130.603 92.7919 132.293 93.4175 133.03 96.4936L134.675 97.4412C134.675 97.4412 133.96 95.098 133.101 93.9468C133.101 93.9468 134.542 94.8648 135.139 97.7299L136.165 98.4924C136.165 98.4924 135.609 96.7934 135.424 96.3196C135.239 95.8458 135.331 95.7495 135.331 95.7495C136.036 96.6284 136.483 97.6857 136.621 98.8034C136.621 98.8034 138.603 100.499 138.736 100.388Z" fill="#FFF6BE"/>
<path opacity="0.1" d="M280.941 62.0316C280.941 62.0316 274.809 49.3239 266.994 55.5871C266.994 55.5871 265.312 56.1497 265.39 57.9154C265.39 57.9154 266.042 57.5822 266.501 58.9407C266.674 59.4242 266.904 59.8853 267.187 60.314C267.564 60.8937 268.121 61.3343 268.773 61.5689C268.773 61.5689 272.137 64.2266 278.54 62.4165C278.54 62.4165 280.33 62.7201 280.626 62.5054L278.592 60.9211C278.592 60.9211 277.48 62.4684 275.935 62.6053C275.935 62.6053 278.584 61.0358 278.299 60.6731C278.24 60.599 277.188 59.8846 277.188 59.8846C277.188 59.8846 275.261 62.5609 272.849 62.6979C272.849 62.6979 276.261 61.2542 276.787 59.6107L275.094 58.6335C275.094 58.6335 273.197 61.5615 270.455 61.8243C270.455 61.8243 273.968 60.1882 274.716 58.441L272.941 57.7007C272.941 57.7007 271.033 60.525 268.754 60.7249C268.754 60.7249 272.619 58.4262 272.522 57.56C272.522 57.56 270.855 56.9715 270.336 57.0307C270.336 57.0307 268.921 59.0222 267.583 59.0222C267.583 59.0222 270.007 57.2121 269.858 56.9196C269.858 56.9196 267.479 56.7346 266.223 57.2898C267.352 56.7293 268.608 56.474 269.866 56.5495C269.369 55.9546 268.708 55.5183 267.965 55.2946C267.965 55.2946 269.291 54.7912 270.444 56.6013C270.444 56.6013 272.296 56.8234 272.515 57.0344C272.515 57.0344 271.629 55.0836 270.496 54.236C270.496 54.236 272.208 54.5839 272.989 57.2158L274.79 57.9265C274.79 57.9265 273.756 55.2872 272.804 54.4544C272.804 54.4544 274.494 55.0799 275.227 58.156L276.876 59.1036C276.876 59.1036 276.157 56.7642 275.298 55.6093C275.298 55.6093 276.743 56.5273 277.336 59.3923L278.362 60.1548C278.362 60.1548 277.81 58.4558 277.621 57.982C277.432 57.5082 277.528 57.4157 277.528 57.4157C278.231 58.2953 278.676 59.3524 278.814 60.4695C278.814 60.4695 280.826 62.15 280.941 62.0316Z" fill="#FFF6BE"/>
<path opacity="0.1" d="M300.539 124.889C300.539 124.889 294.406 112.177 286.581 118.44C286.581 118.44 284.898 119.003 284.976 120.769C284.976 120.769 285.628 120.436 286.088 121.794C286.259 122.277 286.488 122.738 286.77 123.167C287.147 123.747 287.704 124.188 288.356 124.422C288.356 124.422 291.72 127.084 298.127 125.27C298.127 125.27 299.913 125.577 300.209 125.359L298.164 123.778C298.164 123.778 297.052 125.325 295.503 125.462C295.503 125.462 298.153 123.893 297.867 123.53C297.808 123.456 296.756 122.742 296.756 122.742C296.756 122.742 294.829 125.418 292.417 125.559C292.417 125.559 295.829 124.111 296.355 122.468L294.684 121.483C294.684 121.483 292.787 124.415 290.045 124.674C290.045 124.674 293.558 123.038 294.306 121.291L292.532 120.55C292.532 120.55 290.623 123.371 288.344 123.575C288.344 123.575 292.213 121.276 292.117 120.406C292.117 120.406 290.445 119.817 289.927 119.877C289.927 119.877 288.511 121.868 287.174 121.868C287.174 121.868 289.597 120.058 289.449 119.766C289.449 119.766 287.07 119.58 285.814 120.136C286.944 119.576 288.201 119.32 289.46 119.395C288.962 118.8 288.3 118.363 287.555 118.141C287.555 118.141 288.882 117.633 290.034 119.447C290.034 119.447 291.887 119.666 292.105 119.877C292.105 119.877 291.22 117.93 290.09 117.078C290.09 117.078 291.802 117.426 292.583 120.058L294.381 120.769C294.381 120.769 293.347 118.129 292.394 117.3C292.394 117.3 294.084 117.922 294.818 121.002L296.467 121.946C296.467 121.946 295.748 119.606 294.888 118.451C294.888 118.451 296.333 119.369 296.93 122.238L297.956 122.979C297.956 122.979 297.4 121.28 297.215 120.806C297.03 120.332 297.122 120.239 297.122 120.239C297.827 121.118 298.272 122.176 298.408 123.293C298.408 123.293 300.424 125 300.539 124.889Z" fill="#FFF6BE"/>
<path opacity="0.1" d="M74.8299 290.265C79.5346 290.265 83.3486 289.839 83.3486 289.314C83.3486 288.789 79.5346 288.363 74.8299 288.363C70.1252 288.363 66.3113 288.789 66.3113 289.314C66.3113 289.839 70.1252 290.265 74.8299 290.265Z" fill="#FFF6BE"/>
<path opacity="0.1" d="M18.9863 274.097C23.691 274.097 27.505 273.671 27.505 273.145C27.505 272.62 23.691 272.194 18.9863 272.194C14.2816 272.194 10.4677 272.62 10.4677 273.145C10.4677 273.671 14.2816 274.097 18.9863 274.097Z" fill="#FFF6BE"/>
<path opacity="0.1" d="M117.397 301.004C122.102 301.004 125.916 300.578 125.916 300.052C125.916 299.527 122.102 299.101 117.397 299.101C112.692 299.101 108.879 299.527 108.879 300.052C108.879 300.578 112.692 301.004 117.397 301.004Z" fill="#FFF6BE"/>
<path opacity="0.1" d="M335.532 277.613C340.237 277.613 344.051 277.187 344.051 276.662C344.051 276.137 340.237 275.711 335.532 275.711C330.828 275.711 327.014 276.137 327.014 276.662C327.014 277.187 330.828 277.613 335.532 277.613Z" fill="#FFF6BE"/>
<path opacity="0.1" d="M264.645 272.997C269.35 272.997 273.164 272.571 273.164 272.046C273.164 271.521 269.35 271.095 264.645 271.095C259.94 271.095 256.126 271.521 256.126 272.046C256.126 272.571 259.94 272.997 264.645 272.997Z" fill="#FFF6BE"/>
<path opacity="0.1" d="M218.787 295.511C224.351 295.511 228.862 294.737 228.862 293.782C228.862 292.827 224.351 292.053 218.787 292.053C213.223 292.053 208.712 292.827 208.712 293.782C208.712 294.737 213.223 295.511 218.787 295.511Z" fill="#FFF6BE"/>
<path d="M223.282 276.407C223.282 276.407 209.253 283.647 216.501 292.175C216.501 292.175 217.183 294.026 219.154 293.897C219.154 293.897 218.761 293.178 220.266 292.605C220.801 292.398 221.31 292.128 221.781 291.801C222.418 291.362 222.894 290.726 223.137 289.991C223.137 289.991 226.005 286.157 223.782 279.061C223.782 279.061 224.071 277.054 223.819 276.729L222.115 279.064C222.115 279.064 223.875 280.245 224.079 281.981C224.079 281.981 222.226 279.068 221.855 279.39C221.774 279.457 221.01 280.667 221.01 280.667C221.01 280.667 224.064 282.736 224.29 285.424C224.29 285.424 222.57 281.659 220.714 281.122L219.651 283.018C219.651 283.018 222.985 285.046 223.356 288.096C223.356 288.096 221.418 284.228 219.439 283.447L218.658 285.45C218.658 285.45 221.874 287.493 222.17 290.032C222.17 290.032 219.48 285.786 218.513 285.92C218.513 285.92 217.905 287.8 217.987 288.381C217.987 288.381 220.258 289.899 220.299 291.391C220.299 291.391 218.202 288.744 217.879 288.918C217.879 288.918 217.746 291.579 218.391 292.964C218.391 292.964 217.279 290.987 217.461 288.918C216.811 289.492 216.343 290.243 216.116 291.08C216.116 291.08 215.512 289.618 217.501 288.27C217.501 288.27 217.69 286.201 217.92 285.946C217.92 285.946 215.767 286.997 214.852 288.285C214.852 288.285 215.189 286.364 218.109 285.409L218.85 283.38C218.85 283.38 215.93 284.617 215.03 285.705C215.03 285.705 215.678 283.799 219.08 282.884L220.088 281.034C220.088 281.034 217.494 281.907 216.227 282.884C216.227 282.884 217.209 281.245 220.399 280.489L221.218 279.323C221.218 279.323 219.336 279.993 218.809 280.234C218.283 280.475 218.18 280.356 218.18 280.356C219.141 279.543 220.31 279.013 221.555 278.824C221.555 278.824 223.412 276.532 223.282 276.407Z" fill="#FFF6BE"/>
<path d="M264.919 139.658C262.496 133.08 249.156 132.462 243.369 134.139C239.256 135.334 230.585 136.682 225.953 137.359L225.653 137.074C226.254 136.897 226.268 136.46 226.194 135.812C226.151 134.958 226.164 134.103 226.231 133.25C229.07 134.131 231.597 132.047 231.597 132.047C234.932 130.567 234.035 124.23 234.672 122.497C235.15 121.202 235.665 113.569 235.895 109.764H235.943L235.969 108.487C236.002 107.935 236.017 107.613 236.017 107.613C236.017 107.613 236.343 98.3073 236.981 96.4232C237.573 94.6908 238.055 85.9624 238.129 84.578C238.129 84.4596 238.129 84.3967 238.129 84.3967L238.081 83.5897C238.114 83.0012 238.129 82.346 238.126 81.6575C238.126 78.4926 237.796 74.506 237.755 73.8619C237.755 73.7693 237.755 73.6583 237.755 73.525C237.781 72.174 237.611 65.4074 231.849 62.8496C229.725 61.902 227.172 60.773 224.701 59.6736C224.064 54.1767 222.607 48.7095 222.733 43.1718C222.733 42.339 222.808 41.5061 222.889 40.677C222.889 40.9176 222.863 41.1619 222.859 41.4173C222.859 41.954 222.859 42.4945 222.859 43.0312C223.078 36.1055 225.698 29.1427 225.453 22.3651C225.431 23.0277 225.383 23.694 225.32 24.3603C225.448 22.0678 225.208 19.7696 224.608 17.553C224.386 16.772 224.086 15.965 223.445 15.4431C222.839 15.0228 222.144 14.7479 221.414 14.6398C219.661 14.1915 217.88 13.8601 216.082 13.6478C215.809 12.8126 215.404 12.0266 214.882 11.3195C211.125 6.16687 205.559 1.32516 198.978 0.214681C195.677 -0.34056 191.879 0.12214 189.633 2.48006C189.399 2.6872 189.179 2.9098 188.974 3.14635C187.766 4.58628 187.247 6.4778 186.01 7.91403C185.928 8.01027 185.835 8.09911 185.746 8.19165C183.323 10.3571 179.547 10.8087 176.854 12.752C176.379 13.1009 175.934 13.4884 175.523 13.9106C174.438 14.9852 173.465 16.1671 172.618 17.4383C171.407 19.141 170.162 20.9141 169.776 22.9463C169.002 27.018 171.777 30.8788 172.292 34.9765C173.441 44.1454 163.285 52.2815 165.208 61.3282C165.721 63.5508 166.854 65.5825 168.476 67.1879C164.515 70.771 161.143 74.2468 161.143 74.2468V74.4541H160.517L160.58 75.1945H160.517L160.861 79.2107L160.517 85.0592C160.517 85.0592 160.517 85.1222 160.517 85.2406V85.2702V85.4294C160.517 85.4294 160.517 85.4923 160.517 85.6108H160.539C160.654 87.754 161.109 95.4608 161.65 97.0858C162.288 98.9699 162.61 108.276 162.61 108.276C162.61 108.276 163.314 121.428 163.959 123.167C164.604 124.907 163.688 131.226 167.034 132.717C168.013 133.468 169.172 133.947 170.395 134.109C170.225 135.494 170.332 136.497 170.884 136.811C171.121 136.95 171.388 137.027 171.662 137.034C171.435 137.37 171.233 137.722 171.058 138.088C169.73 137.95 168.425 137.643 167.175 137.174C163.581 135.694 151.653 132.362 148.189 134.705C144.724 137.048 136.387 139.173 140.237 148.605C144.087 158.036 145.88 158.273 145.88 158.273C147.065 159.133 148.105 160.176 148.96 161.364C150.116 163.1 160.887 167.072 163.581 167.072C164.726 167.054 165.871 167.111 167.008 167.242C167.008 167.242 164.085 169.804 164.474 171.292C164.863 172.78 163.585 184.692 163.585 184.692C163.585 184.692 166.549 187.675 167.816 183.763L167.861 183.822C168.098 184.144 169.38 185.599 171.792 183.763C172.779 183.014 173.828 182.351 174.927 181.779L186.606 180.128C187.824 180.052 189.045 180.043 190.263 180.102C192.116 180.253 193.935 179.158 195.08 178.31C197.5 179.228 200.22 180.231 201.513 180.598C204.136 181.338 216.193 184.57 219.013 183.559C219.599 183.326 220.121 182.955 220.532 182.478L223.223 182.563L221.963 182.815C221.963 182.815 224.416 182.856 227.751 182.9L227.61 182.982L231.793 182.945C237.914 183 244.792 183.019 245.696 182.815C247.111 182.5 254.466 182.722 256.634 182.815H257.238C257.238 182.815 265.319 181.205 261.984 173.013C259.42 166.72 251.539 164.892 248.041 164.388C249.027 164.192 249.875 164.04 250.439 163.952C252.88 163.581 257.623 161.361 258.009 160.602C258.394 159.843 262.37 157.64 263.396 156.386C264.423 155.131 267.354 146.236 264.919 139.658ZM197.982 158.066L197.585 158.196L197.318 158.284L196.807 158.788C196.399 158.514 195.962 158.225 195.506 157.929C196.31 157.977 197.137 158.025 197.982 158.066Z" fill="url(#paint0_linear_815:11)"/>
<path d="M221.607 119.036C221.607 119.036 227.276 133.843 230.5 132.362C233.724 130.882 232.849 124.589 233.464 122.864C234.079 121.139 234.761 108.057 234.761 108.057C234.761 108.057 235.072 98.8034 235.687 96.9303C236.258 95.2091 236.721 86.5288 236.799 85.1629C236.799 85.0445 236.799 84.9815 236.799 84.9815L236.188 74.2469L232.727 73.3844L224.701 76.3457L223.589 82.6865L223.156 85.1629L222.971 86.2179L221.607 119.036Z" fill="#BE6F72"/>
<path opacity="0.1" d="M223.475 116.556C223.475 116.556 228.884 120.98 230.515 121.368C232.145 121.757 233.146 125.207 233.146 125.207" fill="black"/>
<path d="M177.272 119.684C177.272 119.684 171.603 134.491 168.379 133.01C165.156 131.529 166.03 125.237 165.415 123.512C164.8 121.787 164.118 108.705 164.118 108.705C164.118 108.705 163.807 99.4511 163.192 97.5781C162.621 95.8568 162.158 87.1766 162.08 85.8107C162.08 85.6922 162.08 85.6293 162.08 85.6293L162.695 74.8946L166.156 74.0322L174.182 76.9935L175.294 83.3343L175.727 85.8107L175.912 86.8656L177.272 119.684Z" fill="#BE6F72"/>
<path d="M214.189 40.4475H201.535V60.1511H214.189V40.4475Z" fill="#3E373A"/>
<path opacity="0.1" d="M214.189 40.4475H201.535V60.1511H214.189V40.4475Z" fill="black"/>
<path d="M175.049 134.431C175.049 134.431 170.725 139.18 172.329 140.043C173.934 140.905 184.312 157.07 184.312 157.07C184.312 157.07 218.402 161.264 224.831 154.972C231.26 148.679 231.13 137.437 231.13 137.437C231.13 137.437 225.965 138.548 225.401 137.944C224.838 137.341 221.744 134.431 221.744 134.431C221.744 134.431 178.013 131.781 175.049 134.431Z" fill="#4B4B5B"/>
<path opacity="0.02" d="M175.049 134.431C175.049 134.431 170.725 139.18 172.329 140.043C173.934 140.905 184.312 157.07 184.312 157.07C184.312 157.07 218.402 161.264 224.831 154.972C231.26 148.679 231.13 137.437 231.13 137.437C231.13 137.437 225.965 138.548 225.401 137.944C224.838 137.341 221.744 134.431 221.744 134.431C221.744 134.431 178.013 131.781 175.049 134.431Z" fill="black"/>
<path d="M236.417 74.4023L225.301 83.2862L221.941 83.5305L220.707 83.6193L199.983 85.137L178.491 83.5675L175.294 83.3343L171.218 83.0382L162.695 74.8946C162.695 74.8946 168.728 68.439 174.012 64.0822C176.094 62.361 178.062 60.9692 179.496 60.4213L179.74 60.3362C180.642 59.9848 181.447 59.424 182.089 58.7001C186.262 54.4025 190.119 43.7974 190.119 43.7974C190.119 43.7974 208.523 34.2991 206.3 46.7587C204.077 59.2183 214.574 56.1386 214.574 56.1386L218.035 57.7155L219.402 58.341L222.889 59.9364L230.756 63.5418C236.929 66.3809 236.417 74.4023 236.417 74.4023Z" fill="#BE6F72"/>
<path opacity="0.1" d="M199.119 53.9436C208.261 53.9436 215.671 46.5405 215.671 37.4085C215.671 28.2764 208.261 20.8734 199.119 20.8734C189.978 20.8734 182.567 28.2764 182.567 37.4085C182.567 46.5405 189.978 53.9436 199.119 53.9436Z" fill="black"/>
<path opacity="0.1" d="M236.443 86.1809H162.08C162.08 86.0624 162.08 85.9995 162.08 85.9995L162.695 75.2648C162.695 75.2648 168.728 68.8092 174.012 64.4524L220.699 62.6016L222.871 60.314L230.737 63.9194C236.914 66.7548 236.417 74.7762 236.417 74.7762C236.417 74.7762 237.262 84.0709 236.443 86.1809Z" fill="black"/>
<path d="M236.443 85.8107H162.08C162.08 85.6922 162.08 85.6293 162.08 85.6293L162.695 74.8946C162.695 74.8946 168.728 68.439 174.012 64.0822L220.699 62.2314L222.871 59.9438L230.737 63.5492C236.914 66.3846 236.417 74.406 236.417 74.406C236.417 74.406 237.262 83.7008 236.443 85.8107Z" fill="#E7C7CA"/>
<path opacity="0.1" d="M187.199 55.7092C187.199 55.7092 198.93 70.6415 214.556 55.402C230.181 40.1625 216.286 89.3939 216.286 89.3939L182.567 93.3916L187.199 55.7092Z" fill="black"/>
<path d="M187.199 56.4495C187.199 56.4495 198.93 71.3818 214.556 56.1423C230.181 40.9028 216.286 90.1342 216.286 90.1342L182.567 94.1319L187.199 56.4495Z" fill="#E7C7CA"/>
<path opacity="0.1" d="M219.384 59.0703L220.625 77.9818L221.955 84.2745L222.971 89.0866C222.971 89.0866 225.564 126.103 224.823 127.954C224.082 129.804 225.194 131.285 225.349 132.27C225.505 133.254 225.194 135.727 225.316 136.837C225.438 137.948 225.316 138.44 222.478 138.044C219.639 137.648 215.682 136.96 215.682 136.96C215.682 136.96 205.678 137.7 202.221 136.467C198.763 135.235 192.216 135.231 192.216 135.231C192.216 135.231 182.334 135.479 179.125 135.109C175.916 134.739 174.182 139.058 172.085 137.822C169.988 136.586 174.553 124.622 176.035 121.165C177.517 117.707 174.06 108.949 174.06 108.949L178.506 84.3078L179.496 78.7221V61.1617L179.74 61.0765C180.642 60.7252 181.447 60.1643 182.089 59.4404L183.201 77.1119L218.031 78.3482V58.4595" fill="black"/>
<path d="M219.384 58.3299L220.625 77.2415L221.955 83.5342L222.971 88.3463C222.971 88.3463 225.564 125.362 224.823 127.213C224.082 129.064 225.194 130.545 225.349 131.529C225.505 132.514 225.194 134.987 225.316 136.097C225.438 137.208 225.316 137.7 222.478 137.304C219.639 136.908 215.682 136.219 215.682 136.219C215.682 136.219 205.678 136.96 202.221 135.727C198.763 134.494 192.216 134.491 192.216 134.491C192.216 134.491 182.334 134.739 179.125 134.368C175.916 133.998 174.182 138.318 172.085 137.082C169.988 135.845 174.553 123.882 176.035 120.424C177.517 116.967 174.06 108.209 174.06 108.209L178.506 83.5675L179.496 77.9818V60.4213L179.74 60.3362C180.642 59.9848 181.447 59.424 182.089 58.7001L183.201 76.3716L218.031 77.6079V57.7192" fill="#E7C7CA"/>
<path opacity="0.1" d="M223.389 18.8634C223.178 18.0898 222.885 17.2865 222.278 16.7683C221.697 16.352 221.027 16.0781 220.321 15.9687C218.631 15.5248 216.913 15.1958 215.178 14.9841C214.93 14.1622 214.555 13.384 214.067 12.678C210.435 7.55498 205.063 2.72438 198.741 1.63241C195.432 1.05866 191.597 1.57318 189.478 4.17911C188.314 5.61163 187.814 7.51056 186.639 8.91717C184.376 11.649 180.288 11.9858 177.435 14.0994C175.912 15.2099 174.808 16.8201 173.73 18.3822C172.563 20.0738 171.362 21.8358 170.992 23.8569C170.251 27.8953 172.922 31.745 173.415 35.8205C174.527 44.9375 164.744 53.0255 166.593 62.0204C167.672 67.2656 172.522 70.9598 177.539 72.8328C179.307 73.4954 181.326 74.1543 182.152 75.8497C182.523 76.59 182.586 77.4451 182.934 78.1928C184.105 80.6877 187.955 80.7839 190.022 78.9664C192.09 77.1489 192.742 74.2098 192.987 71.467C193.98 59.4885 189.178 47.6545 189.737 35.6465C189.904 32.0152 190.927 27.8953 194.184 26.2518C198.567 24.0308 203.84 27.7324 208.664 27.0254C210.947 32.5747 211.432 38.6991 210.05 44.5378C209.283 47.7322 207.956 50.8305 207.86 54.1249C207.716 59.1406 210.424 63.7232 212.766 68.1577C213.269 68.987 213.605 69.906 213.755 70.8636C213.792 71.8352 213.611 72.8027 213.226 73.6953C211.903 77.2526 209.62 80.5544 209.361 84.3411C209.285 84.7832 209.384 85.2374 209.639 85.6071C209.9 85.8538 210.237 86.0052 210.595 86.0365C214.596 86.7213 218.057 83.1788 220.01 79.6216C222.187 75.6926 223.456 71.3265 223.723 66.8436C224.127 59.3072 221.422 51.8928 221.589 44.349C221.781 35.7723 225.661 27.1365 223.389 18.8634Z" fill="black"/>
<path d="M223.76 18.4932C223.549 17.7196 223.256 16.9163 222.648 16.3981C222.068 15.9819 221.398 15.708 220.692 15.5986C219.002 15.1546 217.283 14.8256 215.549 14.6139C215.301 13.792 214.926 13.0139 214.437 12.3078C210.806 7.1848 205.433 2.3542 199.112 1.26223C195.803 0.688478 191.968 1.203 189.848 3.80893C188.685 5.24146 188.185 7.14038 187.01 8.54699C184.746 11.2788 180.659 11.6156 177.806 13.7292C176.283 14.8397 175.179 16.4499 174.101 18.012C172.933 19.7036 171.733 21.4656 171.362 23.4867C170.621 27.5251 173.293 31.3748 173.786 35.4503C174.897 44.5673 165.115 52.6554 166.964 61.6503C168.042 66.8954 172.893 70.5897 177.91 72.4627C179.677 73.1253 181.697 73.7841 182.523 75.4795C182.893 76.2198 182.956 77.0749 183.305 77.8226C184.476 80.3175 188.325 80.4137 190.393 78.5962C192.461 76.7787 193.113 73.8397 193.357 71.0968C194.35 59.1184 189.548 47.2843 190.108 35.2763C190.274 31.645 191.297 27.5251 194.554 25.8816C198.938 23.6607 204.21 27.3623 209.035 26.6553C211.318 32.2045 211.802 38.3289 210.421 44.1676C209.654 47.3621 208.327 50.4603 208.231 53.7547C208.086 58.7704 210.795 63.353 213.137 67.7875C213.639 68.6168 213.975 69.5359 214.126 70.4934C214.163 71.465 213.982 72.4325 213.596 73.3251C212.273 76.8824 209.991 80.1842 209.731 83.971C209.655 84.413 209.755 84.8672 210.009 85.2369C210.27 85.4837 210.607 85.635 210.965 85.6663C214.967 86.3511 218.428 82.8087 220.381 79.2514C222.558 75.3225 223.826 70.9563 224.093 66.4735C224.497 58.937 221.792 51.5227 221.959 43.9788C222.152 35.4022 226.031 26.7663 223.76 18.4932Z" fill="#3E373A"/>
<path d="M215.575 182.389L230.274 182.859L228.166 171.969L216.905 173.039L215.575 182.389Z" fill="#C3C7D9"/>
<path d="M261.121 156.578C260.132 157.811 256.304 160.032 255.934 160.772C255.563 161.512 250.994 163.733 248.645 164.103C246.296 164.474 238.889 166.08 237.529 166.943C236.554 167.564 228.732 169.534 223.593 170.626C222.201 170.955 220.792 171.208 219.373 171.384C217.149 171.507 192.82 163.241 192.82 163.241L197.511 158.429L197.77 158.34C199.097 157.892 205.226 155.823 208.627 154.838C212.458 153.728 216.905 149.164 216.905 149.164C216.905 149.164 223.449 146.943 224.316 146.695C225.183 146.447 222.092 138.059 222.092 138.059C222.092 138.059 236.295 136.09 241.853 134.42C247.411 132.751 260.258 133.369 262.603 139.91C264.949 146.45 262.125 155.345 261.121 156.578Z" fill="#4B4B5B"/>
<path d="M196.399 177.429C196.399 177.429 193.561 180.391 190.719 180.146C187.877 179.902 177.939 180.887 177.939 180.887C176.138 181.604 174.452 182.581 172.933 183.785C170.61 185.613 169.376 184.155 169.146 183.844L169.106 183.785C167.868 187.675 165.03 184.71 165.03 184.71C165.03 184.71 166.264 172.865 165.886 171.384C165.508 169.904 168.328 167.361 168.328 167.361L171.662 166.513L180.111 164.351L192.216 168.545L196.399 177.429Z" fill="#E7C7CA"/>
<path opacity="0.1" d="M171.648 166.513L169.146 183.844L169.106 183.785C167.868 187.675 165.03 184.71 165.03 184.71C165.03 184.71 166.264 172.865 165.886 171.384C165.508 169.904 168.328 167.361 168.328 167.361L171.648 166.513Z" fill="black"/>
<path opacity="0.1" d="M189.129 117.215C189.129 117.215 195.673 119.436 201.357 117.215H189.129Z" fill="black"/>
<path opacity="0.1" d="M211.469 121.413C211.469 121.413 214.185 122.768 216.286 121.413H211.469Z" fill="black"/>
<path opacity="0.1" d="M211.469 124.626C211.469 124.626 216.038 125.237 216.905 124.004L211.469 124.626Z" fill="black"/>
<path opacity="0.1" d="M209.987 131.529C209.987 131.529 218.569 130.419 220.699 128.938L209.987 131.529Z" fill="black"/>
<path opacity="0.1" d="M183.801 128.938C183.801 128.938 188.618 131.651 192.201 131.529L183.801 128.938Z" fill="black"/>
<path opacity="0.1" d="M223.589 170.626C222.197 170.955 220.788 171.208 219.369 171.384C217.146 171.507 192.816 163.241 192.816 163.241L197.507 158.429L197.767 158.34C198.508 158.862 199.115 159.31 199.549 159.65C201.591 161.257 203.562 159.158 204.303 159.158C205.044 159.158 211.465 164.462 211.465 164.462C211.465 164.462 217.394 165.821 218.383 167.054C219.373 168.286 222.83 168.042 223.445 168.904C223.63 169.171 223.652 169.826 223.589 170.626Z" fill="black"/>
<path d="M177.939 138.562C177.939 138.562 171.944 138.907 168.487 137.452C165.03 135.997 153.543 132.64 150.208 134.998C146.873 137.356 138.844 139.44 142.549 148.819C146.255 158.199 147.985 158.444 147.985 158.444C149.131 159.303 150.132 160.34 150.949 161.516C152.061 163.245 162.436 167.191 165.03 167.191C167.624 167.191 172.192 167.191 178.614 171.632C185.035 176.074 190.841 176.57 190.841 176.57C190.841 176.57 198.993 179.902 201.531 180.642C204.07 181.383 215.667 184.588 218.387 183.603C221.107 182.619 222.834 176.445 222.834 176.445C222.834 176.445 224.067 170.892 223.449 170.03C222.83 169.167 219.373 169.412 218.387 168.179C217.401 166.946 211.469 165.588 211.469 165.588C211.469 165.588 205.063 160.28 204.321 160.28C203.58 160.28 201.609 162.375 199.568 160.772C195.501 157.763 191.228 155.042 186.78 152.628C182.089 150.159 177.939 138.562 177.939 138.562Z" fill="#4B4B5B"/>
<path opacity="0.1" d="M165.886 142.142C166.953 141.924 168.057 141.955 169.11 142.233C170.163 142.511 171.138 143.028 171.959 143.745C174.923 146.214 184.898 151.17 184.898 151.17" fill="black"/>
<path opacity="0.1" d="M240 141.986C240 141.986 226.783 143.985 224.316 146.698L240 141.986Z" fill="black"/>
<path d="M255.192 182.859H254.611C252.521 182.785 245.44 182.563 244.076 182.859C242.472 183.23 221.225 182.859 221.225 182.859L225.379 181.997C225.379 181.997 223.838 176.6 224.816 176.152C224.816 176.152 219.258 172.495 223.449 170.026C227.639 167.557 232.156 168.597 232.156 168.597L242.676 165.036L244.695 164.351C244.695 164.351 256.552 164.97 259.761 173.113C262.97 181.257 255.192 182.859 255.192 182.859Z" fill="#E7C7CA"/>
<path opacity="0.1" d="M255.192 182.859H254.611C258.06 180.017 265.864 171.362 242.676 165.055L244.695 164.37C244.695 164.37 256.552 164.988 259.761 173.132C262.97 181.275 255.192 182.859 255.192 182.859Z" fill="black"/>
<path d="M233.394 173.265C233.752 173.265 234.042 172.975 234.042 172.617C234.042 172.259 233.752 171.969 233.394 171.969C233.036 171.969 232.745 172.259 232.745 172.617C232.745 172.975 233.036 173.265 233.394 173.265Z" fill="#4B4B5B"/>
<path d="M229.625 174.335C229.984 174.335 230.274 174.045 230.274 173.687C230.274 173.329 229.984 173.039 229.625 173.039C229.267 173.039 228.977 173.329 228.977 173.687C228.977 174.045 229.267 174.335 229.625 174.335Z" fill="#4B4B5B"/>
<g opacity="0.1">
<path opacity="0.1" d="M211.265 36.7977C211.409 32.7262 210.684 28.6708 209.138 24.9007C204.321 25.6188 199.045 21.9061 194.658 24.1271C191.412 25.7706 190.393 29.8905 190.211 33.5218C190.167 34.4805 190.16 35.4392 190.178 36.3979C190.178 36.0574 190.178 35.7131 190.211 35.3726C190.382 31.7413 191.401 27.6214 194.658 25.9779C199.045 23.7569 204.314 27.4585 209.138 26.7515C210.447 29.9449 211.168 33.3483 211.265 36.7977Z" fill="black"/>
<path opacity="0.1" d="M173.937 36.1203C174.001 35.3137 173.985 34.5029 173.889 33.6995C173.497 30.4421 171.714 27.329 171.392 24.153C170.977 27.9842 173.419 31.6636 173.889 35.5503C173.937 35.7502 173.937 35.9278 173.937 36.1203Z" fill="black"/>
<path opacity="0.1" d="M193.461 69.3385C193.231 72.0851 192.583 75.0205 190.497 76.8417C188.411 78.6629 184.568 78.563 183.408 76.0681C183.038 75.3277 182.982 74.4653 182.623 73.7249C181.8 72.0296 179.777 71.3707 178.01 70.7081C172.989 68.8314 168.146 65.1557 167.068 59.8957C166.971 59.4192 166.906 58.937 166.871 58.4521C166.78 59.554 166.846 60.6632 167.068 61.7465C168.146 66.9917 172.996 70.6822 178.01 72.5589C179.777 73.2215 181.8 73.8804 182.623 75.5758C182.993 76.3161 183.056 77.1711 183.408 77.9189C184.576 80.4138 188.425 80.51 190.497 78.6925C192.568 76.875 193.213 73.9359 193.461 71.1894C193.574 69.7437 193.612 68.2932 193.576 66.8437C193.576 67.6839 193.528 68.5131 193.461 69.3385Z" fill="black"/>
<path opacity="0.1" d="M222.081 42.2243C222.081 42.761 222.081 43.294 222.081 43.827C222.289 36.9421 224.816 30.02 224.568 23.2794C224.375 29.5129 222.222 35.8871 222.081 42.2243Z" fill="black"/>
<path opacity="0.1" d="M214.13 70.0752C214.221 69.636 214.249 69.1861 214.215 68.7389C214.066 67.7809 213.729 66.8615 213.225 66.033C211.084 61.9612 208.642 57.7932 208.353 53.2736C208.353 53.466 208.327 53.6437 208.323 53.851C208.175 58.863 210.884 63.4493 213.225 67.8838C213.623 68.5706 213.928 69.3076 214.13 70.0752Z" fill="black"/>
<path opacity="0.1" d="M224.212 64.7189C223.935 69.2035 222.658 73.5695 220.473 77.4969C218.517 81.0541 215.06 84.5966 211.054 83.9118C210.695 83.8809 210.358 83.728 210.098 83.4787C210.023 83.3939 209.964 83.296 209.924 83.19C209.88 83.4787 209.842 83.7711 209.82 84.0672C209.744 84.5081 209.843 84.9614 210.098 85.3295C210.358 85.5788 210.695 85.7317 211.054 85.7626C215.06 86.4474 218.517 82.9049 220.473 79.3477C222.658 75.4203 223.935 71.0543 224.212 66.5697C224.256 65.7036 224.26 64.8411 224.234 63.9786C224.227 64.2266 224.227 64.4709 224.212 64.7189Z" fill="black"/>
</g>
<path opacity="0.1" d="M224.816 176.152C224.816 176.152 234.194 180.083 240.378 171.384" stroke="black" stroke-miterlimit="10"/>
<path opacity="0.1" d="M226.661 183.022C226.661 183.022 234.32 178.047 244.076 182.859" stroke="black" stroke-miterlimit="10"/>
<path opacity="0.1" d="M175.394 181.893C175.394 181.893 178.61 174.646 187.199 180.172" stroke="black" stroke-miterlimit="10"/>
<path opacity="0.1" d="M164.967 74.7096L171.525 68.787C171.525 68.787 196.955 67.1213 198.008 75.7571C198.008 75.7571 207.023 65.5185 225.983 67.7987L234.005 74.1802L211.832 83.9006L190.286 91.3668L174.415 84.2708L164.967 74.7096Z" fill="black"/>
<path d="M164.967 75.0797L171.525 69.1572C171.525 69.1572 196.955 67.4914 198.008 76.1273C198.008 76.1273 207.023 65.8886 225.983 68.1688L234.005 74.5504L211.832 84.2708L190.286 91.737L174.415 84.641L164.967 75.0797Z" fill="#D5D6DB"/>
<path opacity="0.1" d="M162.065 75.8201L164.967 110.493L195.721 112.037L194.387 77.5117L194.361 76.9306L162.065 75.8201Z" fill="black"/>
<path d="M162.065 75.0797L164.967 109.753L195.721 111.296L194.387 76.7713L194.361 76.1902L162.065 75.0797Z" fill="#FFF6BE"/>
<path opacity="0.1" d="M235.413 75.0797L203.688 79.8326V114.661L234.691 110.186L235.413 75.0797Z" fill="black"/>
<path d="M235.413 74.3394L203.688 79.0923V113.921L234.691 109.445L235.413 74.3394Z" fill="#FFF6BE"/>
<path opacity="0.3" d="M227.932 82.8383L210.795 84.7409L211.169 90.5746L227.921 88.7461L227.932 82.8383Z" fill="white"/>
<path d="M166.634 128.32L168.379 133.01C168.379 133.01 170.973 135.231 173.811 134.12C176.65 133.01 179.125 132.458 180.359 131.377C181.593 130.297 183.323 124.866 183.323 124.866C183.323 124.866 185.054 118.944 186.78 117.463C188.507 115.982 193.079 95.5829 186.78 97.5781C180.481 99.5733 175.664 118.081 175.664 118.081C175.664 118.081 174.553 119.436 172.948 119.562C171.344 119.688 168.131 119.314 167.512 120.672C166.894 122.031 164.781 125.607 166.634 128.32Z" fill="#BE6F72"/>
<path opacity="0.1" d="M203.688 79.8289C202.064 80.1945 200.376 80.1754 198.761 79.7731C197.145 79.3707 195.646 78.5963 194.384 77.5117L195.721 112.033C195.721 112.033 198.871 115.438 203.688 114.661V79.8289Z" fill="black"/>
<path d="M203.688 79.0886C202.064 79.4542 200.376 79.4351 198.761 79.0327C197.145 78.6304 195.646 77.8559 194.384 76.7714L195.721 111.293C195.721 111.293 198.871 114.698 203.688 113.921V79.0886Z" fill="#FFF6BE"/>
<path opacity="0.1" d="M203.688 79.0886C202.064 79.4542 200.376 79.4351 198.761 79.0327C197.145 78.6304 195.646 77.8559 194.384 76.7714L195.721 111.293C195.721 111.293 198.871 114.698 203.688 113.921V79.0886Z" fill="black"/>
<path opacity="0.1" d="M204.429 75.1982C204.429 75.1982 217.335 71.256 220.699 71.8112L204.429 75.1982Z" fill="black"/>
<path opacity="0.1" d="M189.993 73.4769C189.993 73.4769 177.483 70.5157 175.394 71.3559L189.993 73.4769Z" fill="black"/>
<path opacity="0.1" d="M212.566 75.6905C212.566 75.6905 221.196 72.5293 224.316 74.0322L212.566 75.6905Z" fill="black"/>
<path opacity="0.1" d="M208.22 154.99C209.557 153.987 210.98 153.104 212.473 152.351C214.696 151.281 218.772 148.505 218.772 148.505" fill="black"/>
<path opacity="0.1" d="M175.394 117.215C175.394 117.215 169.98 121.639 168.353 122.027C166.727 122.416 165.723 125.866 165.723 125.866" fill="black"/>
<path d="M232.23 127.661L230.504 132.362C230.504 132.362 227.91 134.583 225.068 133.473C222.226 132.362 219.758 131.811 218.52 130.73C217.283 129.649 215.556 124.219 215.556 124.219C215.556 124.219 213.829 118.296 212.099 116.815C210.369 115.335 205.8 94.9351 212.099 96.9303C218.398 98.9255 223.215 117.434 223.215 117.434C223.215 117.434 224.327 118.788 225.931 118.914C227.536 119.04 230.748 118.666 231.367 120.025C231.986 121.383 234.083 124.959 232.23 127.661Z" fill="#BE6F72"/>
<path opacity="0.1" d="M229.203 119.014C229.203 119.014 232.742 121.287 232.727 124.004L229.203 119.014Z" fill="black"/>
<path d="M199.178 53.1329C208.32 53.1329 215.73 45.7299 215.73 36.5978C215.73 27.4657 208.32 20.0627 199.178 20.0627C190.037 20.0627 182.627 27.4657 182.627 36.5978C182.627 45.7299 190.037 53.1329 199.178 53.1329Z" fill="#BE6F72"/>
<path d="M188.785 32.1596C190.793 31.8449 192.553 30.6789 194.473 30.0089C198.767 28.5024 203.517 29.5351 207.864 30.8936C209.531 31.4155 211.225 32.0041 212.973 32.0041C214.722 32.0041 216.579 31.2897 217.472 29.7831C218.294 28.3987 218.135 26.5998 217.442 25.145C216.749 23.6903 215.589 22.5206 214.419 21.4175C210.565 17.7825 205.785 14.3844 200.498 14.7546C198.371 14.9064 196.336 15.6652 194.38 16.5055C191.916 17.566 189.519 18.7724 187.199 20.1182C185.417 21.151 182.115 22.5317 181.089 24.4195C178.754 28.6727 185.154 32.7296 188.785 32.1596Z" fill="#3E373A"/>
<path opacity="0.1" d="M217.472 28.2285C216.579 29.735 214.722 30.4494 212.973 30.4494C211.225 30.4494 209.531 29.8831 207.86 29.3612C203.514 28.0027 198.767 26.9662 194.469 28.4765C192.553 29.1465 190.789 30.3273 188.781 30.6234C185.854 31.0824 181.141 28.5357 180.629 25.2968C180.055 29.0391 185.52 32.2447 188.781 31.7339C190.789 31.4192 192.553 30.2532 194.469 29.5869C198.767 28.0767 203.514 29.1131 207.86 30.4716C209.531 30.9936 211.221 31.5821 212.973 31.5599C214.726 31.5377 216.579 30.8492 217.472 29.3389C217.935 28.5173 218.117 27.5674 217.991 26.6331C217.933 27.1956 217.756 27.7394 217.472 28.2285Z" fill="black"/>
<path d="M351.795 228.837C351.795 228.837 353.992 231.706 350.78 236.041C347.567 240.375 344.922 244.032 345.989 246.734C345.989 246.734 350.836 238.687 354.778 238.572C358.721 238.458 356.127 233.675 351.795 228.837Z" fill="#FFF6BE"/>
<path opacity="0.1" d="M351.795 228.837C351.987 229.114 352.137 229.417 352.244 229.737C356.09 234.253 358.143 238.469 354.441 238.572C350.995 238.672 346.863 244.828 345.874 246.379C345.906 246.504 345.944 246.628 345.989 246.749C345.989 246.749 350.836 238.702 354.778 238.587C358.721 238.472 356.127 233.675 351.795 228.837Z" fill="black"/>
<path d="M355.871 232.494C355.871 233.505 355.756 234.323 355.619 234.323C355.482 234.323 355.363 233.505 355.363 232.494C355.363 231.484 355.504 231.961 355.645 231.961C355.786 231.961 355.871 231.484 355.871 232.494Z" fill="#FFD037"/>
<path d="M357.275 233.701C356.39 234.182 355.615 234.475 355.549 234.353C355.482 234.23 356.145 233.738 357.031 233.242C357.916 232.746 357.568 233.109 357.635 233.242C357.702 233.375 358.165 233.216 357.275 233.701Z" fill="#FFD037"/>
<path d="M340.183 228.837C340.183 228.837 337.985 231.706 341.198 236.041C344.41 240.375 347.056 244.032 345.985 246.734C345.985 246.734 341.142 238.687 337.196 238.572C333.25 238.458 335.862 233.675 340.183 228.837Z" fill="#FFF6BE"/>
<path opacity="0.1" d="M340.183 228.837C339.991 229.114 339.84 229.417 339.734 229.737C335.888 234.253 333.835 238.469 337.537 238.572C340.979 238.672 345.114 244.828 346.104 246.379C346.073 246.505 346.033 246.629 345.985 246.749C345.985 246.749 341.142 238.702 337.196 238.587C333.25 238.472 335.862 233.675 340.183 228.837Z" fill="black"/>
<path d="M336.099 232.494C336.099 233.505 336.21 234.323 336.351 234.323C336.492 234.323 336.607 233.505 336.607 232.494C336.607 231.484 336.462 231.961 336.325 231.961C336.188 231.961 336.099 231.484 336.099 232.494Z" fill="#FFD037"/>
<path d="M334.699 233.701C335.584 234.182 336.359 234.475 336.425 234.353C336.492 234.23 335.829 233.738 334.943 233.242C334.058 232.746 334.406 233.109 334.339 233.242C334.272 233.375 333.809 233.216 334.699 233.701Z" fill="#FFD037"/>
<path opacity="0.1" d="M345.989 268.692C358.677 268.692 368.962 267.116 368.962 265.172C368.962 263.228 358.677 261.652 345.989 261.652C333.301 261.652 323.016 263.228 323.016 265.172C323.016 267.116 333.301 268.692 345.989 268.692Z" fill="#FFF6BE"/>
<path d="M357.813 242.866L357.702 243.762L357.546 245.028L357.483 245.557L357.327 246.823L357.261 247.353L357.109 248.615L355.349 263.014C355.193 264.299 353.092 265.302 350.554 265.302H341.42C338.882 265.302 336.785 264.299 336.625 263.014L334.865 248.615L334.71 247.353L334.647 246.823L334.491 245.557L334.424 245.028L334.272 243.762L334.161 242.866C334.076 242.126 335.21 241.526 336.648 241.526H355.33C356.764 241.526 357.902 242.137 357.813 242.866Z" fill="#65617D"/>
<path d="M357.701 243.762L357.55 245.028H334.428L334.272 243.762H357.701Z" fill="#9D9CB5"/>
<path d="M357.483 245.557L357.331 246.823H334.647L334.491 245.557H357.483Z" fill="#9D9CB5"/>
<path d="M357.264 247.353L357.109 248.619H334.865L334.713 247.353H357.264Z" fill="#9D9CB5"/>
</g>
<defs>
<linearGradient id="paint0_linear_815:11" x1="202.55" y1="185.791" x2="202.55" y2="-1.35519e-05" gradientUnits="userSpaceOnUse">
<stop stop-color="#808080" stop-opacity="0.25"/>
<stop offset="0.54" stop-color="#808080" stop-opacity="0.12"/>
<stop offset="1" stop-color="#808080" stop-opacity="0.1"/>
</linearGradient>
<clipPath id="clip0_815:11">
<rect width="379" height="301" fill="white"/>
</clipPath>
</defs>
</svg>
