<svg width="20" height="29" viewBox="0 0 20 29" fill="none" xmlns="http://www.w3.org/2000/svg">
<g clip-path="url(#clip0_840:28)">
<path d="M13.7909 14.5L19.4767 8.83197C20.1744 8.13643 20.1744 7.00871 19.4767 6.3126L18.2131 5.05291C17.5153 4.35736 16.3841 4.35736 15.6858 5.05291L10 10.7209L4.3142 5.05291C3.61648 4.35736 2.48523 4.35736 1.78693 5.05291L0.523295 6.3126C-0.174432 7.00814 -0.174432 8.13586 0.523295 8.83197L6.20909 14.5L0.523295 20.168C-0.174432 20.8636 -0.174432 21.9913 0.523295 22.6874L1.78693 23.9471C2.48466 24.6426 3.61648 24.6426 4.3142 23.9471L10 18.2791L15.6858 23.9471C16.3835 24.6426 17.5153 24.6426 18.2131 23.9471L19.4767 22.6874C20.1744 21.9919 20.1744 20.8641 19.4767 20.168L13.7909 14.5Z" fill="#808080"/>
</g>
<defs>
<clipPath id="clip0_840:28">
<rect width="20" height="29" fill="white"/>
</clipPath>
</defs>
</svg>
